<?xml version="1.0" encoding="utf-8"?>
<!-- Generated by IcoMoon.io -->
<!DOCTYPE svg PUBLIC "-//W3C//DTD SVG 1.1//EN" "http://www.w3.org/Graphics/SVG/1.1/DTD/svg11.dtd">
<svg version="1.1" xmlns="http://www.w3.org/2000/svg" xmlns:xlink="http://www.w3.org/1999/xlink" width="32" height="32" viewBox="0 0 32 32">
<path d="M11.925 31.995v0c-0.575 0-1.104-0.431-1.258-1.025-0.145-0.56 0.089-1.119 0.582-1.393 0.046-0.026 0.108-0.057 0.182-0.093 0.289-0.139 0.534-0.274 0.613-0.526 0.066-0.212 0.087-0.72-0.506-1.753l-7.95-13.893c-0.211-0.277-0.865-1.247-0.67-2.379 0.091-0.53 0.411-1.287 1.415-1.885l14.866-8.85c0.197-0.116 0.413-0.176 0.631-0.176 0.576 0 1.091 0.411 1.252 1.001 0.152 0.56-0.074 1.129-0.564 1.418-0.046 0.027-0.109 0.060-0.183 0.099-0.314 0.163-0.582 0.322-0.668 0.615-0.113 0.386 0.070 1.019 0.512 1.782l8.209 14.151c0.218 0.282 0.903 1.279 0.692 2.434-0.099 0.543-0.44 1.315-1.503 1.909l-15.057 8.405c-0.185 0.103-0.389 0.157-0.593 0.157zM17.913 3.002l-12.687 7.553c-0.518 0.308-0.567 0.582-0.583 0.673-0.073 0.405 0.236 0.902 0.35 1.044 0.029 0.036 0.059 0.079 0.082 0.118l7.981 13.947c0.618 1.077 0.863 1.993 0.741 2.785l12.925-7.215c0.373-0.209 0.587-0.441 0.634-0.691 0.078-0.412-0.247-0.924-0.367-1.072-0.029-0.035-0.061-0.079-0.084-0.119l-8.242-14.206c-0.628-1.080-0.875-2.006-0.752-2.817z" fill="#000000"></path>
<path d="M8.035 13.886c-0.171 0-0.338-0.088-0.431-0.246-0.14-0.238-0.061-0.544 0.177-0.684l6.565-3.864c0.238-0.138 0.544-0.060 0.684 0.178s0.061 0.544-0.177 0.684l-6.565 3.864c-0.079 0.046-0.166 0.069-0.253 0.069z" fill="#000000"></path>
<path d="M14.415 25.003c-0.175 0-0.344-0.091-0.436-0.255-0.136-0.241-0.050-0.546 0.19-0.681l6.666-3.758c0.24-0.137 0.546-0.051 0.681 0.19s0.050 0.546-0.19 0.681l-6.666 3.758c-0.078 0.044-0.162 0.064-0.245 0.064z" fill="#000000"></path>
<path d="M9.624 16.651c-0.172 0-0.34-0.089-0.432-0.248-0.139-0.239-0.058-0.544 0.181-0.684l9.408-5.477c0.239-0.138 0.545-0.058 0.683 0.181s0.058 0.544-0.18 0.684l-9.408 5.477c-0.079 0.046-0.165 0.068-0.251 0.068z" fill="#000000"></path>
<path d="M11.217 19.43c-0.173 0-0.341-0.090-0.434-0.25-0.137-0.239-0.056-0.545 0.184-0.683l9.444-5.441c0.239-0.137 0.545-0.056 0.683 0.184s0.055 0.545-0.184 0.682l-9.444 5.441c-0.079 0.045-0.165 0.067-0.249 0.067z" fill="#000000"></path>
<path d="M12.813 22.212c-0.174 0-0.343-0.091-0.435-0.253-0.136-0.239-0.053-0.546 0.187-0.682l9.481-5.404c0.239-0.136 0.545-0.053 0.682 0.187s0.053 0.546-0.187 0.682l-9.48 5.404c-0.079 0.044-0.164 0.066-0.248 0.066z" fill="#000000"></path>
</svg>
